HIERARCHY
ROOT Hips
{
	OFFSET 0.000000 0.000000 0.000000
	CHANNELS 6 Xposition Yposition Zposition Xrotation Yrotation Zrotation
	JOINT LeftUpLeg_virtual
	{
		OFFSET 0.000000 0.000000 0.000000
		CHANNELS 3 Xrotation Yrotation Zrotation
		JOINT LeftUpLeg
		{
			OFFSET 11.394100 -6.187798 -0.413800
			CHANNELS 3 Xrotation Yrotation Zrotation
			JOINT LeftLeg
			{
				OFFSET 0.430247 -32.302673 3.732800
				CHANNELS 3 Xrotation Yrotation Zrotation
				JOINT LeftFoot
				{
					OFFSET -0.430247 -48.264931 -6.423300
					CHANNELS 3 Xrotation Yrotation Zrotation
					JOINT LeftToeBase
					{
						OFFSET 4.230900 -16.068199 23.438400
						CHANNELS 3 Xrotation Yrotation Zrotation
						JOINT LeftToe_End
						{
							OFFSET 4.510700 0.695400 19.974600
							CHANNELS 3 Xrotation Yrotation Zrotation
							End Site
							{
								OFFSET 0 0 0
							}
						}
					}
				}
			}
		}
	}
	JOINT RightUpLeg_virtual
	{
		OFFSET 0.000000 0.000000 0.000000
		CHANNELS 3 Xrotation Yrotation Zrotation
		JOINT RightUpLeg
		{
			OFFSET -11.333700 -6.187798 -0.413800
			CHANNELS 3 Xrotation Yrotation Zrotation
			JOINT RightLeg
			{
				OFFSET -0.430392 -32.302628 3.733000
				CHANNELS 3 Xrotation Yrotation Zrotation
				JOINT RightFoot
				{
					OFFSET 0.430392 -48.264973 -6.423500
					CHANNELS 3 Xrotation Yrotation Zrotation
					JOINT RightToeBase
					{
						OFFSET -4.230900 -16.068199 23.438400
						CHANNELS 3 Xrotation Yrotation Zrotation
						JOINT RightToe_End
						{
							OFFSET -4.510700 0.695400 19.974600
							CHANNELS 3 Xrotation Yrotation Zrotation
							End Site
							{
								OFFSET 0 0 0
							}
						}
					}
				}
			}
		}
	}
	JOINT Spine_virtual
	{
		OFFSET 0.000000 0.000000 0.000000
		CHANNELS 3 Xrotation Yrotation Zrotation
		JOINT Spine
		{
			OFFSET -0.002400 12.777504 0.315300
			CHANNELS 3 Xrotation Yrotation Zrotation
			JOINT Spine1
			{
				OFFSET -0.002067 5.816869 0.032633
				CHANNELS 3 Xrotation Yrotation Zrotation
				JOINT Spine1_split
				{
					OFFSET -0.002067 5.816869 0.032633
					CHANNELS 3 Xrotation Yrotation Zrotation
					JOINT Spine2
					{
						OFFSET -0.002067 5.816869 0.032633
						CHANNELS 3 Xrotation Yrotation Zrotation
						JOINT Neck_virtual
						{
							OFFSET 0.000000 0.000000 0.000000
							CHANNELS 3 Xrotation Yrotation Zrotation
							JOINT Neck
							{
								OFFSET -0.003700 21.199493 -0.826900
								CHANNELS 3 Xrotation Yrotation Zrotation
								JOINT Head
								{
									OFFSET 0.000000 20.442200 4.834800
									CHANNELS 3 Xrotation Yrotation Zrotation
									JOINT HeadTop_End
									{
										OFFSET 0.000000 34.668396 4.968400
										CHANNELS 3 Xrotation Yrotation Zrotation
										End Site
										{
											OFFSET 0 0 0
										}
									}
								}
							}
						}
						JOINT LeftShoulder_virtual
						{
							OFFSET 0.000000 0.000000 0.000000
							CHANNELS 3 Xrotation Yrotation Zrotation
							JOINT LeftShoulder
							{
								OFFSET 3.288150 8.794197 -1.372250
								CHANNELS 3 Xrotation Yrotation Zrotation
								JOINT LeftShoulder_split
								{
									OFFSET 3.288150 8.794197 -1.372250
									CHANNELS 3 Xrotation Yrotation Zrotation
									JOINT LeftArm
									{
										OFFSET 11.953299 -2.279007 -0.146200
										CHANNELS 3 Xrotation Yrotation Zrotation
										JOINT LeftForeArm
										{
											OFFSET 18.448900 0.000000 0.000000
											CHANNELS 3 Xrotation Yrotation Zrotation
											JOINT LeftHand
											{
												OFFSET 29.527798 0.000000 0.000000
												CHANNELS 3 Xrotation Yrotation Zrotation
												End Site
												{
													OFFSET 0 0 0
												}
											}
										}
									}
								}
							}
						}
						JOINT RightShoulder_virtual
						{
							OFFSET 0.000000 0.000000 0.000000
							CHANNELS 3 Xrotation Yrotation Zrotation
							JOINT RightShoulder
							{
								OFFSET -3.249400 8.794197 -1.372250
								CHANNELS 3 Xrotation Yrotation Zrotation
								JOINT RightShoulder_split
								{
									OFFSET -3.249400 8.794197 -1.372250
									CHANNELS 3 Xrotation Yrotation Zrotation
									JOINT RightArm
									{
										OFFSET -11.953299 -2.279007 -0.146200
										CHANNELS 3 Xrotation Yrotation Zrotation
										JOINT RightForeArm
										{
											OFFSET -18.448900 0.000000 0.000000
											CHANNELS 3 Xrotation Yrotation Zrotation
											JOINT RightHand
											{
												OFFSET -29.527802 0.000000 0.000000
												CHANNELS 3 Xrotation Yrotation Zrotation
												End Site
												{
													OFFSET 0 0 0
												}
											}
										}
									}
								}
							}
						}
					}
				}
			}
		}
	}
}
MOTION
Frames: 10
Frame Time: 0.03333333
7.124606 95.739494 110.209351 0.000000 0.000000 0.000000 23.868028 24.341522 -7.768868 -53.986696 5.638311 14.076100 50.194749 10.037979 -5.412654 -0.854944 28.668083 -2.403116 -2.517154 0.292434 -6.608815 0.000000 0.000000 0.000000 23.868028 24.341522 -7.768868 -55.215420 -4.127167 -4.654715 34.805889 -7.254791 -4.652567 -0.682928 -6.189323 4.168330 -0.776285 0.000002 -0.000003 0.000000 0.000000 0.000000 23.868028 24.341522 -7.768868 11.228159 -0.698531 2.447572 6.689003 -2.739665 0.561830 0.000000 0.000000 0.000000 0.000000 0.000000 0.000000 6.767274 -2.647715 0.806087 -7.061397 0.651895 3.401813 -21.911028 3.055703 1.503036 0.000000 0.000000 0.000000 6.767274 -2.647715 0.806087 1.518839 -7.209062 -6.123056 0.000000 0.000000 0.000000 -29.320906 -21.016009 -35.448453 -0.000002 -29.544953 0.000003 0.000000 0.000000 0.000000 6.767274 -2.647715 0.806087 2.382988 6.831230 2.707430 0.000000 0.000000 0.000000 -16.474835 -9.604019 53.071598 0.000024 62.536577 -0.000014 0.000000 0.000000 0.000000 
7.613037 97.843399 113.353012 0.000000 0.000000 0.000000 24.226150 26.004243 -8.352895 -52.684108 6.305302 12.247929 41.088820 10.401039 -5.416387 5.668190 29.618846 -5.733794 -3.512447 0.376751 -6.041654 0.000000 0.000000 0.000000 24.226150 26.004243 -8.352895 -48.902273 -4.896148 -4.258410 29.123626 -6.908776 -4.647698 -1.306462 -8.039379 3.994906 -0.776292 0.000004 -0.000002 0.000000 0.000000 0.000000 24.226150 26.004243 -8.352895 10.739848 0.297995 2.364183 6.787121 -2.287292 0.523223 0.000000 0.000000 0.000000 0.000000 0.000000 0.000000 6.856943 -2.249067 0.744097 -6.145221 0.029305 2.502974 -24.587516 -0.208397 0.944951 0.000000 0.000000 0.000000 6.856943 -2.249067 0.744097 1.618582 -6.835510 -6.264186 0.000000 0.000000 0.000000 -26.441493 -21.915704 -35.489649 0.000000 -27.829488 0.000001 0.000000 0.000000 0.000000 6.856943 -2.249067 0.744097 2.446336 6.435832 2.980739 0.000000 0.000000 0.000000 -17.981433 -11.167564 54.420584 0.000019 66.639519 -0.000013 0.000000 0.000000 0.000000 
8.117014 98.987251 116.161865 0.000000 0.000000 0.000000 24.351875 27.877936 -9.087823 -51.928210 6.641367 11.144025 33.551132 10.330852 -5.269559 12.379084 29.380093 -11.183672 -8.987907 -0.166807 1.160396 0.000000 0.000000 0.000000 24.351875 27.877936 -9.087823 -44.248090 -6.168637 -3.958522 25.928151 -6.343940 -4.615014 -2.536017 -9.784726 3.766101 -0.776289 0.000002 -0.000002 0.000000 0.000000 0.000000 24.351875 27.877936 -9.087823 10.195848 1.358652 2.352720 6.872418 -1.748159 0.478841 0.000000 0.000000 0.000000 0.000000 0.000000 0.000000 6.935684 -1.762651 0.687620 -5.731388 -0.678794 1.445519 -27.121906 -3.844589 0.191413 0.000000 0.000000 0.000000 6.935684 -1.762651 0.687620 1.650700 -6.391016 -6.371709 0.000000 0.000000 0.000000 -23.539755 -22.127414 -35.245446 0.000009 -27.532738 0.000011 0.000000 0.000000 0.000000 6.935684 -1.762651 0.687620 2.521239 6.103415 3.214544 0.000000 0.000000 0.000000 -19.050591 -12.399781 55.928639 -0.000008 71.237425 0.000012 0.000000 0.000000 0.000000 
8.399262 99.111313 118.923019 0.000000 0.000000 0.000000 24.323656 29.896401 -9.892197 -52.860914 6.766210 10.615857 30.223454 10.249633 -5.312581 12.695664 29.403647 -12.795275 -4.840115 -0.331012 4.855216 0.000000 0.000000 0.000000 24.323656 29.896401 -9.892197 -41.707300 -7.164716 -3.400662 26.268361 -5.638982 -4.558043 -5.006565 -12.173252 3.368031 -0.776294 -0.000001 0.000002 0.000000 0.000000 0.000000 24.323656 29.896401 -9.892197 9.609225 2.285980 2.469594 6.938810 -1.200941 0.394681 0.000000 0.000000 0.000000 0.000000 0.000000 0.000000 6.995881 -1.243777 0.556805 -5.860926 -1.216349 0.345767 -28.865298 -7.301558 -0.714623 0.000000 0.000000 0.000000 6.995881 -1.243777 0.556805 1.600679 -5.900224 -6.378140 0.000000 0.000000 0.000000 -20.631032 -20.820189 -34.468437 0.000006 -31.483081 -0.000003 0.000000 0.000000 0.000000 6.995881 -1.243777 0.556805 2.569333 6.276833 3.284419 0.000000 0.000000 0.000000 -19.444152 -12.478115 57.433053 0.000038 75.730132 -0.000067 0.000000 0.000000 0.000000 
8.612444 97.820885 121.609436 0.000000 0.000000 0.000000 24.235828 31.898534 -10.782933 -55.966198 6.801295 10.268429 31.451768 10.234857 -5.386194 12.287060 29.443159 -12.098569 -4.249616 -0.193984 3.712128 0.000000 0.000000 0.000000 24.235828 31.898534 -10.782933 -42.290004 -8.734927 -3.130114 31.589249 -4.696517 -4.539731 -9.433122 -14.301223 2.779846 -0.776293 0.000001 0.000000 0.000000 0.000000 0.000000 24.235828 31.898534 -10.782933 8.959237 3.276159 3.012006 6.979440 -0.616616 0.084967 0.000000 0.000000 0.000000 0.000000 0.000000 0.000000 7.032306 -0.730688 0.218837 -6.150272 -2.077896 -0.648182 -30.226186 -9.985577 -1.730394 0.000000 0.000000 0.000000 7.032306 -0.730688 0.218837 1.483850 -5.195683 -6.244720 0.000000 0.000000 0.000000 -18.327593 -18.394207 -33.141218 0.000001 -37.452065 -0.000003 0.000000 0.000000 0.000000 7.032306 -0.730688 0.218837 2.615239 7.096787 3.014259 0.000000 0.000000 0.000000 -19.595937 -12.189654 58.969217 -0.000050 79.094615 0.000052 0.000000 0.000000 0.000000 
8.869160 95.601158 124.335541 0.000000 0.000000 0.000000 24.099493 33.797227 -11.718645 -59.726582 7.233256 9.039408 33.703705 10.267600 -5.331162 11.519341 29.626092 -5.441512 -4.366376 -0.043654 1.764582 0.000000 0.000000 0.000000 24.099493 33.797227 -11.718645 -44.081590 -11.140834 -3.296485 39.019279 -3.907732 -4.552824 -14.904776 -15.409293 2.027524 -0.776296 -0.000007 0.000002 0.000000 0.000000 0.000000 24.099493 33.797227 -11.718645 8.250672 4.331923 3.748541 6.995790 -0.036538 -0.580341 0.000000 0.000000 0.000000 0.000000 0.000000 0.000000 7.044683 -0.308791 -0.427660 -6.326382 -3.009437 -1.298515 -30.881782 -12.267146 -2.331852 0.000000 0.000000 0.000000 7.044683 -0.308791 -0.427660 1.121498 -3.625877 -4.936484 0.000000 0.000000 0.000000 -17.082177 -15.665085 -32.510751 0.000016 -42.806114 0.000011 0.000000 0.000000 0.000000 7.044683 -0.308791 -0.427660 2.650929 8.620934 2.214277 0.000000 0.000000 0.000000 -19.495520 -12.310841 61.064432 0.000055 82.024445 -0.000044 0.000000 0.000000 0.000000 
9.413395 93.632629 127.130295 0.000000 0.000000 0.000000 23.812285 35.425049 -12.750957 -62.774971 7.465297 8.553080 36.195512 9.279148 -5.459281 12.007294 29.372064 1.289359 -5.887508 -0.000014 -0.000002 0.000000 0.000000 0.000000 23.812285 35.425049 -12.750957 -44.206528 -14.117842 -3.513404 44.215499 -4.086170 -4.570241 -19.664062 -14.776180 1.720647 -0.776285 0.000005 -0.000003 0.000000 0.000000 0.000000 23.812285 35.425049 -12.750957 7.568840 5.285175 3.856712 6.864472 0.543942 -1.180450 0.000000 0.000000 0.000000 0.000000 0.000000 0.000000 6.926732 0.144410 -0.978549 -6.316746 -3.773497 -1.724572 -30.702407 -14.630279 -2.109198 0.000000 0.000000 0.000000 6.926732 0.144410 -0.978549 0.841876 -1.975003 -3.007318 0.000000 0.000000 0.000000 -17.627397 -13.318447 -32.689159 -0.000006 -47.550701 -0.000010 0.000000 0.000000 0.000000 6.926732 0.144410 -0.978549 2.374399 10.253666 0.897349 0.000000 0.000000 0.000000 -18.836707 -12.716489 63.971115 0.000039 83.769893 -0.000019 0.000000 0.000000 0.000000 
10.278397 93.298378 130.477600 0.000000 0.000000 0.000000 23.421782 36.990979 -13.629867 -62.524911 7.511073 8.559807 35.767703 7.916288 -5.665599 11.337720 28.955552 2.681521 -9.728935 -0.000012 0.000001 0.000000 0.000000 0.000000 23.421782 36.990979 -13.629867 -39.884374 -15.739905 -2.052891 43.502516 -4.811219 -4.562691 -22.518087 -14.990484 1.634323 -0.776296 -0.000006 -0.000001 0.000000 0.000000 0.000000 23.421782 36.990979 -13.629867 6.687126 5.863564 3.110724 6.096690 1.128904 -1.303463 0.000000 0.000000 0.000000 0.000000 0.000000 0.000000 6.174813 0.754322 -1.021007 -6.185292 -4.200251 -2.149809 -29.414206 -17.656744 -1.372387 0.000000 0.000000 0.000000 6.174813 0.754322 -1.021007 0.567405 -0.837754 -1.991327 0.000000 0.000000 0.000000 -18.542977 -11.552258 -33.114803 0.000008 -51.491321 0.000019 0.000000 0.000000 0.000000 6.174813 0.754322 -1.021007 1.875336 11.077965 -0.062386 0.000000 0.000000 0.000000 -17.625793 -12.957437 66.546950 0.000063 84.321035 -0.000048 0.000000 0.000000 0.000000 
11.875299 94.024872 135.095078 0.000000 0.000000 0.000000 23.026627 38.666787 -14.458582 -60.589932 7.455583 8.836461 35.315596 7.204473 -5.772943 10.724457 27.090707 2.716763 -11.488162 0.000009 -0.000004 0.000000 0.000000 0.000000 23.026627 38.666787 -14.458582 -33.456316 -17.039799 0.016258 40.711206 -5.318911 -4.618495 -23.172651 -15.185896 2.265498 -2.420414 0.000068 -0.005963 0.000000 0.000000 0.000000 23.026627 38.666787 -14.458582 5.785188 5.780042 1.563140 5.160326 1.679314 -0.994104 0.000000 0.000000 0.000000 0.000000 0.000000 0.000000 5.195030 1.439002 -0.803124 -5.730915 -4.545271 -2.987250 -26.265827 -20.904332 0.817628 0.000000 0.000000 0.000000 5.195030 1.439002 -0.803124 0.516770 -1.004919 -1.393361 0.000000 0.000000 0.000000 -19.025528 -11.105770 -33.376764 -0.000003 -56.206556 -0.000017 0.000000 0.000000 0.000000 5.195030 1.439002 -0.803124 1.296834 10.802959 -0.126128 0.000000 0.000000 0.000000 -15.613597 -13.072504 68.054912 -0.000014 84.633632 0.000038 0.000000 0.000000 0.000000 
14.107629 95.139481 140.075821 0.000000 0.000000 0.000000 22.807142 40.495481 -15.389369 -58.179490 7.048967 9.927519 37.095338 7.494053 -5.797527 8.865282 24.448350 1.131655 -12.239895 -0.000021 -0.000004 0.000000 0.000000 0.000000 22.807142 40.495481 -15.389369 -28.214741 -18.181035 1.552429 39.347135 -4.212190 -4.790888 -21.256027 -15.948058 3.507421 -7.036037 0.002228 -0.045517 0.000000 0.000000 0.000000 22.807142 40.495481 -15.389369 4.948764 4.856515 -0.141256 4.228346 2.117026 -0.704704 0.000000 0.000000 0.000000 0.000000 0.000000 0.000000 4.196327 2.130825 -0.700574 -5.749827 -4.815723 -4.072386 -21.763588 -23.765443 3.670358 0.000000 0.000000 0.000000 4.196327 2.130825 -0.700574 0.451052 -2.131942 -0.933362 0.000000 0.000000 0.000000 -18.049152 -13.189053 -32.913432 0.000007 -60.961692 0.000017 0.000000 0.000000 0.000000 4.196327 2.130825 -0.700574 1.124083 9.698824 0.254172 0.000000 0.000000 0.000000 -13.587708 -12.457077 69.023747 -0.000286 84.633632 0.000311 0.000000 0.000000 0.000000 
